<svg id="_x33_0" enable-background="new 0 0 62 62" height="512" viewBox="0 0 62 62" width="512" xmlns="http://www.w3.org/2000/svg" xmlns:xlink="http://www.w3.org/1999/xlink"><linearGradient id="SVGID_1_" gradientUnits="userSpaceOnUse" x1="31" x2="31" y1="62" y2="0"><stop offset="0" stop-color="#9f2fff"/><stop offset="1" stop-color="#0bb1d3"/></linearGradient><path d="m28.699 32.071c-.845-3.508-4.033-6.071-7.699-6.071-3.664 0-6.85 2.561-7.698 6.071-1.873.332-3.302 1.962-3.302 3.929 0 2.206 1.794 4 4 4h14c2.206 0 4-1.794 4-4 0-1.967-1.429-3.597-3.301-3.929zm-.699 5.929h-14c-1.103 0-2-.897-2-2s.897-2 2-2h.146c.762 0 1.448.424 1.789 1.105l.171.342 1.789-.895-.171-.342c-.495-.989-1.354-1.701-2.37-2.021.752-2.438 3.03-4.189 5.646-4.189 2.603 0 4.874 1.733 5.643 4.192-1.014.32-1.872 1.031-2.366 2.019l-.171.342 1.789.895.171-.342c.34-.682 1.026-1.106 1.788-1.106h.146c1.103 0 2 .897 2 2s-.897 2-2 2zm-20 8h26c1.103 0 2-.897 2-2v-22c0-1.103-.897-2-2-2h-26c-1.103 0-2 .897-2 2v22c0 1.103.897 2 2 2zm0-24h26l.001 22h-26.001zm-6 25c0 1.654 1.346 3 3 3h3v4h2v-4h4v6h2v-6h4v4h2v-4h4v6h2v-6h9c1.654 0 3-1.346 3-3v-5h14.184c.414 1.161 1.514 2 2.816 2 1.654 0 3-1.346 3-3s-1.346-3-3-3c-1.302 0-2.402.839-2.816 2h-14.184v-6h10.184c.414 1.161 1.514 2 2.816 2 1.654 0 3-1.346 3-3s-1.346-3-3-3c-1.302 0-2.402.839-2.816 2h-10.184v-4h16.184c.414 1.161 1.514 2 2.816 2 1.654 0 3-1.346 3-3s-1.346-3-3-3c-1.302 0-2.402.839-2.816 2h-16.184v-4h10.184c.414 1.161 1.514 2 2.816 2 1.654 0 3-1.346 3-3s-1.346-3-3-3c-1.302 0-2.402.839-2.816 2h-10.184v-1c0-1.654-1.346-3-3-3h-9v-6h-2v6h-4v-4h-2v4h-4v-6h-2v6h-4v-4h-2v4h-3c-1.654 0-3 1.346-3 3v5h-2v2h2v2h-2v2h2v2h-2v2h2v2h-2v2h2v2h-2v2h2zm55-7c.551 0 1 .448 1 1s-.449 1-1 1-1-.448-1-1 .449-1 1-1zm-4-8c.551 0 1 .448 1 1s-.449 1-1 1-1-.448-1-1 .449-1 1-1zm6-6c.551 0 1 .448 1 1s-.449 1-1 1-1-.448-1-1 .449-1 1-1zm-6-6c.551 0 1 .448 1 1s-.449 1-1 1-1-.448-1-1 .449-1 1-1zm-49-1c0-.552.449-1 1-1h32c.551 0 1 .448 1 1v28c0 .552-.449 1-1 1h-32c-.551 0-1-.448-1-1zm46.184 39h-12.77l-1.414-1.414c-.378-.378-.88-.586-1.414-.586h-4.586v2h4.586l1.414 1.414c.378.378.88.586 1.414.586h12.77c.414 1.161 1.514 2 2.816 2 1.654 0 3-1.346 3-3s-1.346-3-3-3c-1.302 0-2.402.839-2.816 2zm3.816 1c0 .552-.449 1-1 1s-1-.448-1-1 .449-1 1-1 1 .448 1 1zm5-5c1.654 0 3-1.346 3-3s-1.346-3-3-3c-1.302 0-2.402.839-2.816 2h-10.684c-.627 0-1.225.3-1.6.8l-2.4 3.2h-3.5v2h3.5c.627 0 1.225-.3 1.6-.8l2.4-3.2h10.684c.414 1.161 1.514 2 2.816 2zm0-4c.551 0 1 .448 1 1s-.449 1-1 1-1-.448-1-1 .449-1 1-1zm-15-4h-2v-2h2zm4-2v2h-2v-2zm-1.816-32h-8.77l-1.414-1.414c-.378-.378-.88-.586-1.414-.586h-4.586v2h4.586l1.414 1.414c.378.378.88.586 1.414.586h8.77c.414 1.161 1.514 2 2.816 2 1.654 0 3-1.346 3-3s-1.346-3-3-3c-1.302 0-2.402.839-2.816 2zm3.816 1c0 .552-.449 1-1 1s-1-.448-1-1 .449-1 1-1 1 .448 1 1zm5-7c1.654 0 3-1.346 3-3s-1.346-3-3-3c-1.302 0-2.402.839-2.816 2h-14.684c-.627 0-1.225.3-1.6.8l-2.4 3.2h-11.5v2h11.5c.627 0 1.225-.3 1.6-.8l2.4-3.2h14.684c.414 1.161 1.514 2 2.816 2zm0-4c.551 0 1 .448 1 1s-.449 1-1 1-1-.448-1-1 .449-1 1-1z" fill="url(#SVGID_1_)"/></svg>