<svg width="107" height="43" viewBox="0 0 107 43" fill="none" xmlns="http://www.w3.org/2000/svg">
<path d="M31.8372 13.2288H28.1892V30.4828H31.8372V13.2288ZM38.36 23.0016C38.3685 21.3335 39.3626 20.3562 40.8116 20.3562C42.2523 20.3562 43.12 21.2998 43.1116 22.8836V30.4828H46.7006V22.2433C46.7006 19.2273 44.9314 17.3738 42.2354 17.3738C40.3146 17.3738 38.9245 18.3174 38.3432 19.8254H38.1915V17.5423H34.7711V30.4828H38.36V23.0016ZM49.5292 30.4828H53.1181V17.5423H49.5292V30.4828ZM51.3321 15.8742C52.402 15.8742 53.2782 15.057 53.2782 14.0545C53.2782 13.0603 52.402 12.2431 51.3321 12.2431C50.2706 12.2431 49.3944 13.0603 49.3944 14.0545C49.3944 15.057 50.2706 15.8742 51.3321 15.8742ZM62.8761 17.5423H60.4414V14.442H56.8524V17.5423H55.0832V20.2382H56.8524V26.9781C56.8356 29.5139 58.5626 30.7692 61.1659 30.6597C62.0926 30.626 62.7497 30.4406 63.112 30.3227L62.5475 27.652C62.3706 27.6857 61.9915 27.77 61.6545 27.77C60.9384 27.77 60.4414 27.5004 60.4414 26.5063V20.2382H62.8761V17.5423ZM65.214 30.4828H68.8029V17.5423H65.214V30.4828ZM67.0169 15.8742C68.0868 15.8742 68.963 15.057 68.963 14.0545C68.963 13.0603 68.0868 12.2431 67.0169 12.2431C65.9554 12.2431 65.0792 13.0603 65.0792 14.0545C65.0792 15.057 65.9554 15.8742 67.0169 15.8742ZM79.9763 24.973C79.9847 26.7085 78.7968 27.6183 77.5078 27.6183C76.1514 27.6183 75.2753 26.6663 75.2668 25.1415V17.5423H71.6779V25.7817C71.6863 28.8062 73.4555 30.6513 76.0588 30.6513C78.0049 30.6513 79.4034 29.6487 79.9847 28.1322H80.1195V30.4828H83.5652V17.5423H79.9763V24.973ZM86.436 30.4828H90.0249V22.7151C90.0249 21.2829 90.9348 20.3309 92.1311 20.3309C93.3106 20.3309 94.1025 21.1397 94.1025 22.4118V30.4828H97.5819V22.5803C97.5819 21.2408 98.3486 20.3309 99.6544 20.3309C100.8 20.3309 101.66 21.047 101.66 22.4877V30.4828H105.24V21.78C105.24 18.9745 103.572 17.3738 101.162 17.3738C99.2669 17.3738 97.7926 18.3427 97.2618 19.8254H97.127C96.7142 18.3258 95.3915 17.3738 93.6139 17.3738C91.8699 17.3738 90.5473 18.3005 90.0081 19.8254H89.8564V17.5423H86.436V30.4828Z" fill="#072664"/>
<path fill-rule="evenodd" clip-rule="evenodd" d="M2.17943 12.4892V18.4146L7.49182 21.0708L12.8042 18.4146V12.4892L14.9837 13.579V31.8403L7.49183 35.5862L0 31.8403V13.579L2.17943 12.4892Z" fill="#0C3A66"/>
<path d="M2.17944 15.6051V2.6562L7.49183 0L12.8042 2.6562V15.6051L7.49183 18.2613L2.17944 15.6051Z" fill="#8FC8FF"/>
</svg>
